PathFileType	4	(X/Y/Z)	46_2_36_p0_0-292_filt_butterworth.trc
DataRate	CameraRate	NumFrames	NumMarkers	Units	OrigDataRate	OrigDataStartFrame	OrigNumFrames
59.0	59.0	6	27	m	59.0	146	292
Frame#	Time	RHip			RKnee			RAnkle			RBigToe			RSmallToe			RHeel			LHip			LKnee			LAnkle			LBigToe			LSmallToe			LHeel			Neck			Head			Nose			RShoulder			RElbow			RWrist			RThumb			RIndex			RPinky			LShoulder			LElbow			LWrist			LThumb			LIndex			LPinky			
		X1	Y1	Z1	X2	Y2	Z2	X3	Y3	Z3	X4	Y4	Z4	X5	Y5	Z5	X6	Y6	Z6	X7	Y7	Z7	X8	Y8	Z8	X9	Y9	Z9	X10	Y10	Z10	X11	Y11	Z11	X12	Y12	Z12	X13	Y13	Z13	X14	Y14	Z14	X15	Y15	Z15	X16	Y16	Z16	X17	Y17	Z17	X18	Y18	Z18	X19	Y19	Z19	X20	Y20	Z20	X21	Y21	Z21	X22	Y22	Z22	X23	Y23	Z23	X24	Y24	Z24	X25	Y25	Z25	X26	Y26	Z26	X27	Y27	Z27	
146	2.4745762711864407	0.43548015590097966	0.37482047315795747	0.6719244348696465	0.38119248870973127	0.4730041064709136	1.092851963431143	0.3547204765645665	0.5291432037892184	1.4869217418112608	0.35396106738110505	0.34015784416493344	1.508170815633163	0.424177464449881	0.3619832423191337	1.5074726227307558	0.32074925823720546	0.6286408259895546	1.5657440008062105	0.23450013424815186	0.3680418347832444	0.6668822547362441	0.2304529503253666	0.3925398045258063	1.053587617028367	0.17666998118108473	0.5048303033026786	1.471820959610943	0.19787525372177736	0.28951193097643857	1.4709720608519186	0.1443729027969169	0.34189637065194345	1.4852468805942234	0.17953296010997866	0.5731960275241013	1.5607132309067413	0.34635589465197736	0.3431466021675261	0.08351769085674941	0.38792642090518215	0.32130646881442193	-0.14332357196511714	0.37922028780853584	0.26066260216587445	-0.02660328828573867	0.503492370076697	0.3553329839002502	0.2164406021142484	0.5599238196864826	0.3559700718032554	0.4576709978256658	0.4017099590164179	0.2396355720425982	0.5948027091562337	0.32814015438966904	0.19303444861596492	0.6208803563610268	0.30186846978493725	0.22507375429305856	0.653437561206067	0.30218743912517343	0.21919491560036158	0.661382634083176	0.19821394494938363	0.3450186929680785	0.17660371846608117	0.12737873245202652	0.3263686073824475	0.44554557634097247	0.2670381445808001	0.18423841421075812	0.5665686856843611	0.361538931342356	0.17771359715345555	0.6015707931933889	0.362006624930151	0.17685169445434115	0.6409989524853263	0.34535031821155676	0.19424020205985593	0.6682431380392971
147	2.4915254237288136	0.4354017730613724	0.3748042888474879	0.6715681667930725	0.3811607429520445	0.4731123425570314	1.0924819365017557	0.35455272063554455	0.5291361946712938	1.486174298085935	0.3539561020467209	0.3400950964341703	1.5082636943927066	0.4241220358189102	0.3619195196209245	1.507525743819197	0.3207424628598614	0.6285951553817988	1.5657512714567368	0.23431366720956417	0.3679325899707596	0.6676362033917792	0.23041499980002764	0.39262901562522	1.0520881043449648	0.17674564359420486	0.505054963837548	1.4708703156818823	0.1978725431159286	0.28794376425080326	1.470139739321404	0.14438660654586424	0.34186034269079135	1.485221073391636	0.1800469491753337	0.5767069623935485	1.562595197356268	0.3462056735461928	0.3436292962722718	0.0812252655218772	0.38813144054715654	0.32262550257903144	-0.14418231025789446	0.3788612869046104	0.2594253439080064	-0.02713109449767843	0.5035687655021382	0.3550641729446538	0.21640840321799956	0.5611082100950419	0.3524466462771746	0.45757529175316247	0.3994150236106487	0.2420063111270654	0.5988564431393217	0.32397528785593416	0.20205856820314722	0.6261204766985191	0.29704252998840464	0.2324012646272809	0.657684597796978	0.298933165733085	0.2269289531254624	0.6666284415667655	0.1982113509754608	0.3449955545398158	0.17662865110848963	0.12743615305138833	0.32636857160959737	0.44561275027763386	0.26711325701622896	0.1904204793331806	0.5709472530174804	0.3619814881227401	0.177255541576807	0.6057603417638078	0.36223179976933634	0.17773922355650704	0.644366458808604	0.34384351798337986	0.19854746489680508	0.6741520512689396
148	2.5084745762711864	0.43539358109284554	0.3747702668873897	0.6713909459094695	0.38117379619176545	0.47317899709628297	1.092703299704412	0.35493202546413016	0.5305270354620317	1.487349543370159	0.35395002435373407	0.3400456205104887	1.5082964238543655	0.42405255779051426	0.3619150006076934	1.507598165069167	0.3207537798816794	0.6285092667769007	1.5657162077175812	0.23400096360115752	0.3662723953348491	0.6692503377941219	0.23036352231567186	0.39294494096126714	1.0511335860172568	0.17675148680915428	0.5052748959500422	1.4698731282734598	0.19786558243115998	0.2875417376101027	1.4699527787606412	0.14374634555919164	0.34315897853919125	1.485995391141334	0.1807329118529147	0.5814032300370758	1.5651394707697952	0.34612658316197314	0.34393521767793706	0.07953013741099554	0.38812340127208855	0.32262516104177325	-0.14451207580729783	0.37870119521662227	0.25910348567316766	-0.02736587829518573	0.5035941676137161	0.35472338448403673	0.21639490126614516	0.5616252658016572	0.3510534306466051	0.45760321237654905	0.3976817181085106	0.24675746103861212	0.6033302212705003	0.31835690994955107	0.2149575097884094	0.6330382864528242	0.29407474858981014	0.23719421106814131	0.6613362597921592	0.29665438587932813	0.2316790189124849	0.6700971853471109	0.198212992128121	0.34499305819476767	0.1766705152929273	0.12738278376528137	0.32636319511594597	0.44572470835735956	0.2679878658068886	0.1967178653186677	0.5745325081965191	0.3622562813422684	0.1780442566718498	0.6097289727966192	0.3627855769347633	0.18041269642121702	0.6469474367886828	0.3411499410296306	0.20804374953555138	0.6792595823746197
149	2.5254237288135597	0.43542226339805246	0.3747490265794141	0.6714093780381519	0.38115934367113413	0.47326303900561	1.0929629260312463	0.3557916589295327	0.5341661956386683	1.4892800087502402	0.35394327557838323	0.34001778919273756	1.5082084186313078	0.4239935858257285	0.36192494077303194	1.5076354330903483	0.32079027791613346	0.6284509254348507	1.5656674345617614	0.2335270131907985	0.3623965078266568	0.6706642409548302	0.2303175761190612	0.39299867005890415	1.0508680182879557	0.176698538278823	0.505303924524722	1.469480151015941	0.19783327542665277	0.2882211159291844	1.4702220367390528	0.14204459290751695	0.3466196879275413	1.4880737999009146	0.1812785062627615	0.5851043385574186	1.5672227533699241	0.3461243140127415	0.34396442197189375	0.07876790672106287	0.3880218210632326	0.32201778638349454	-0.14453109136216336	0.3786386442289541	0.25909010301809643	-0.02748193818290553	0.5035974017568211	0.35448042541972263	0.21633173283626456	0.5617396984648011	0.3509864101976927	0.4576287433592905	0.39702549868228115	0.251777184751352	0.6077715991258686	0.3130594480054408	0.22835031904270128	0.6396689387282937	0.2926565137383081	0.23959596471536776	0.6638485631901563	0.29531116791158457	0.23406230547083667	0.6714502992037554	0.19821406822076915	0.34500184293651665	0.176714117959798	0.12721351291136343	0.32642079745607827	0.44572656759605667	0.2694802430673093	0.20302054719529197	0.5770545604862407	0.36229550313344006	0.1807154274877212	0.6134491429899419	0.3635361322089477	0.18508454926326065	0.6486541377168449	0.33861144517752195	0.21925343489626037	0.6821719754225504
150	2.542372881355932	0.435435996419371	0.37477550002013155	0.6715832586427664	0.38108165865174987	0.4734542220327506	1.0928137192877079	0.3568503798397193	0.5390411110162892	1.4908717159326463	0.3539385004779346	0.34002243375384394	1.508037864555456	0.42396967885348685	0.361919314682944	1.5076182611067614	0.3208521985959831	0.6284304066769559	1.5656195887540751	0.23294888211956524	0.35758523025993	0.6709995831809662	0.23028883613208395	0.39287023021411105	1.0510672999480661	0.17628773134100395	0.5048509019931059	1.4696777898889102	0.19782298796067393	0.2912404372123465	1.4714633530912873	0.13974632117249133	0.35130646933259735	1.4909018287665647	0.18152521198914845	0.5867381115973407	1.5682541998215296	0.3461513541136665	0.34385952779630924	0.07854141860551797	0.38783685243400323	0.3208785609418582	-0.14448880241899373	0.3786215838986421	0.2591280050247249	-0.02756259571396087	0.503609868447356	0.3544044583169329	0.21607662984669782	0.5616924959698318	0.3511931258524055	0.45761479338942945	0.3974773548613751	0.25447200584538526	0.6108113140519454	0.31069668540919915	0.2363794205585122	0.6431192303118113	0.2920999712350903	0.24037280657231042	0.6653974669943429	0.2946787039425455	0.23662917413571558	0.6725049431993284	0.1981826986209399	0.3450061720984298	0.1767392990070208	0.12718550565121528	0.3266403564947501	0.4453506920551076	0.27163908277262805	0.2096147716100202	0.578942141656279	0.3622214249427517	0.18444961144943672	0.6162435773824938	0.3645165440833467	0.19102584633824576	0.6503350666099375	0.33731383852434044	0.22693320433933634	0.6831829303026561
151	2.559322033898305	0.4353784766299527	0.3748498128871578	0.6718769139928932	0.38096499335443973	0.4737846935187512	1.0918775420270097	0.3576296067057496	0.5428910623938873	1.4917781943326358	0.3539463004168941	0.3400843364074583	1.5079125165961969	0.4239913472751059	0.3618897265879138	1.507558896208838	0.3209265232092095	0.6284022151016649	1.5655707179542269	0.23247069894340014	0.35417420756500545	0.6706607327932856	0.23023929537578455	0.39290898027599086	1.050857148763634	0.17523976844815306	0.5037638919813715	1.4700545676655952	0.1979438133747069	0.2970118074886056	1.4739854829450054	0.1379254648416547	0.3550552853019797	1.493171109822867	0.18154575399538805	0.5868446901631836	1.5683489131978998	0.34618051724363497	0.343735642164238	0.07859009122213993	0.38762302308895635	0.31950133076811466	-0.14448470437120264	0.3786396792225887	0.2591474969791337	-0.027614377138231155	0.5036163593140875	0.3543404038766909	0.215606629053195	0.5613218640955195	0.3512040440661318	0.4575739928910817	0.3987176565859781	0.2551756060222098	0.6122211410415439	0.3118262888305658	0.23728823267355734	0.6427875902263537	0.29144896449278096	0.24162630432992988	0.6670307342081981	0.2944051238425001	0.24188864237561494	0.675525026465422	0.19806887049026073	0.3449966759945524	0.17673647618098542	0.12789326139505924	0.32700128906927384	0.4444723467091963	0.2741947255367089	0.2163489736058888	0.581033878915354	0.3621015964602145	0.18807259679229896	0.6177957696867321	0.36584465310821035	0.1975534310121282	0.6532046542031467	0.3372236691931651	0.2297646615507017	0.684460807166712
